<?xml version="1.0" encoding="utf-8"?>
<!-- Generator: Adobe Illustrator 19.2.1, SVG Export Plug-In . SVG Version: 6.00 Build 0)  -->
<svg version="1.1"
	 id="svg4460" inkscape:version="0.48.2 r9819" sodipodi:docname="maki-24-base.svg" xmlns:cc="http://creativecommons.org/ns#" xmlns:dc="http://purl.org/dc/elements/1.1/" xmlns:inkscape="http://www.inkscape.org/namespaces/inkscape" xmlns:rdf="http://www.w3.org/1999/02/22-rdf-syntax-ns#" xmlns:sodipodi="http://sodipodi.sourceforge.net/DTD/sodipodi-0.dtd" xmlns:svg="http://www.w3.org/2000/svg"
	 xmlns="http://www.w3.org/2000/svg" xmlns:xlink="http://www.w3.org/1999/xlink" x="0px" y="0px" viewBox="0 0 24 24"
	 style="enable-background:new 0 0 24 24;" xml:space="preserve">
<style type="text/css">
	.st0{fill:none;}
	
		.st1{opacity:0.3;fill:#FFFFFF;stroke:#FFFFFF;stroke-width:2;stroke-linecap:round;stroke-linejoin:round;enable-background:new    ;}
	.st2{fill:#5E925A;}
</style>
<sodipodi:namedview  bordercolor="#666666" borderopacity="1.0" id="base" inkscape:current-layer="layer1" inkscape:cx="15.046158" inkscape:cy="14.594095" inkscape:document-units="px" inkscape:guide-bbox="true" inkscape:pageopacity="0.0" inkscape:pageshadow="2" inkscape:snap-bbox="true" inkscape:window-height="752" inkscape:window-maximized="1" inkscape:window-width="1280" inkscape:window-x="0" inkscape:window-y="0" inkscape:zoom="15.999999" pagecolor="#ffffff" showgrid="true" showguides="true">
	
		<inkscape:grid  empspacing="5" enabled="true" id="grid4468" snapvisiblegridlinesonly="true" spacingx="1px" spacingy="1px" type="xygrid" visible="true">
		</inkscape:grid>
	<sodipodi:guide  id="guide4470" orientation="1,0" position="0,20"></sodipodi:guide>
	<sodipodi:guide  id="guide4472" orientation="0,1" position="4,24"></sodipodi:guide>
	<sodipodi:guide  id="guide4474" orientation="1,0" position="24,13"></sodipodi:guide>
	<sodipodi:guide  id="guide4476" orientation="0,1" position="15,0"></sodipodi:guide>
	<sodipodi:guide  id="guide4478" orientation="1,0" position="23,20"></sodipodi:guide>
	<sodipodi:guide  id="guide4480" orientation="0,1" position="20,23"></sodipodi:guide>
	<sodipodi:guide  id="guide4482" orientation="1,0" position="2,5"></sodipodi:guide>
	<sodipodi:guide  id="guide4484" orientation="0,1" position="7,2"></sodipodi:guide>
	<sodipodi:guide  id="guide4486" orientation="1,0" position="13,16"></sodipodi:guide>
	<sodipodi:guide  id="guide4490" orientation="0,1" position="16,13"></sodipodi:guide>
</sodipodi:namedview>
<g id="layer1" transform="translate(0,-1028.3622)" inkscape:groupmode="layer" inkscape:label="Layer 1">
	<g id="farm-24" transform="translate(-630,-310)" inkscape:label="#g6591">
		<rect id="rect7325-2-7-0-6-5" x="630" y="1338.4" class="st0" width="24" height="24"/>
		<g id="g6587">
			<path id="path6565" inkscape:connector-curvature="0" sodipodi:nodetypes="sccssssccccccccss" class="st1" d="M647,1345.4v10h5
				v-10c0-1.5-0.5-3-2.5-3S647,1343.9,647,1345.4z M636,1345.4c-0.5,0-1,0.5-1.5,1l-2.5,3h1v6h12v-6h1l-2.5-3c-0.5-0.5-1-1-1.5-1
				H636z"/>
			<path id="path9641" inkscape:connector-curvature="0" sodipodi:nodetypes="sccssssccccccccccccsscsccsc" class="st2" d="
				M647,1345.4v10h5v-10c0-1.5-0.5-3-2.5-3S647,1343.9,647,1345.4z M636,1345.4c-0.5,0-1,0.5-1.5,1l-2.5,3h1v6h7v-3h2v3h3v-6h1
				l-2.5-3c-0.5-0.5-1-1-1.5-1H636z M641,1347.4c0,0,2,1.3,2,2v1h-4v-1C639,1348.6,641,1347.4,641,1347.4z"/>
		</g>
	</g>
</g>
</svg>
